<svg width="25" height="24" viewBox="0 0 25 24" fill="none" xmlns="http://www.w3.org/2000/svg">
<path d="M4.525 3.64585L4.04167 1.22919H1.625L4.525 3.64585ZM4.525 3.64585H23.375L18.5417 13.3125H6.45833M4.525 3.64585L6.45833 13.3125M6.45833 13.3125L3.68762 16.0832C2.92637 16.8445 3.46529 18.1459 4.54192 18.1459H18.5417M18.5417 18.1459C17.9007 18.1459 17.286 18.4005 16.8328 18.8537C16.3796 19.3069 16.125 19.9216 16.125 20.5625C16.125 21.2035 16.3796 21.8181 16.8328 22.2714C17.286 22.7246 17.9007 22.9792 18.5417 22.9792C19.1826 22.9792 19.7973 22.7246 20.2505 22.2714C20.7037 21.8181 20.9583 21.2035 20.9583 20.5625C20.9583 19.9216 20.7037 19.3069 20.2505 18.8537C19.7973 18.4005 19.1826 18.1459 18.5417 18.1459ZM8.875 20.5625C8.875 21.2035 8.62039 21.8181 8.16717 22.2714C7.71396 22.7246 7.09927 22.9792 6.45833 22.9792C5.81739 22.9792 5.2027 22.7246 4.74949 22.2714C4.29628 21.8181 4.04167 21.2035 4.04167 20.5625C4.04167 19.9216 4.29628 19.3069 4.74949 18.8537C5.2027 18.4005 5.81739 18.1459 6.45833 18.1459C7.09927 18.1459 7.71396 18.4005 8.16717 18.8537C8.62039 19.3069 8.875 19.9216 8.875 20.5625Z" stroke="white" stroke-width="2" stroke-linecap="round" stroke-linejoin="round"/>
</svg>
