<svg width="16" height="14" viewBox="0 0 16 14" fill="none" xmlns="http://www.w3.org/2000/svg">
<path d="M8.00035 1.21218C7.12628 0.43267 5.98221 3.62204e-05 4.7948 0C4.16631 0.000634647 3.54416 0.121809 2.96415 0.35655C2.38413 0.591291 1.85771 0.934963 1.41517 1.36779C-0.47239 3.20629 -0.471588 6.08192 1.41677 7.91264L7.29843 13.6172C7.43481 13.8498 7.69793 14 8.00035 14C8.12453 13.9988 8.24669 13.9694 8.35703 13.9142C8.46737 13.8589 8.56281 13.7793 8.63568 13.6818L14.5839 7.91264C16.4723 6.08114 16.4723 3.20629 14.5823 1.36468C14.14 0.932646 13.614 0.589672 13.0346 0.355472C12.4551 0.121272 11.8337 0.000466516 11.2059 0C10.0185 0.000188253 8.8745 0.432801 8.00035 1.21218ZM13.448 2.46482C14.7019 3.68712 14.7027 5.59642 13.4496 6.81249L8.00035 12.0977L2.55107 6.81249C1.29805 5.59642 1.29885 3.68712 2.54946 2.46793C3.15913 1.87974 3.95651 1.55607 4.7948 1.55607C5.63309 1.55607 6.42725 1.87974 7.03211 2.46638L7.4332 2.8554C7.50764 2.92771 7.59604 2.98508 7.69336 3.02423C7.79068 3.06337 7.895 3.08352 8.00035 3.08352C8.10571 3.08352 8.21003 3.06337 8.30734 3.02423C8.40466 2.98508 8.49307 2.92771 8.5675 2.8554L8.96859 2.46638C10.1815 1.29232 12.2367 1.29543 13.448 2.46482Z" fill="#626262"/>
</svg>
