<svg width="14" height="13" viewBox="0 0 14 13" fill="none" xmlns="http://www.w3.org/2000/svg">
<path d="M12.8059 4.51717L8.83873 3.94061L7.06529 0.3453C7.01685 0.246862 6.93716 0.167175 6.83873 0.118737C6.59185 -0.00313752 6.29185 0.098425 6.16841 0.3453L4.39497 3.94061L0.427788 4.51717C0.318413 4.5328 0.218413 4.58436 0.141851 4.66249C0.0492908 4.75762 -0.00171392 4.88561 4.3978e-05 5.01833C0.00180188 5.15106 0.0561785 5.27765 0.151226 5.3703L3.02154 8.16874L2.34341 12.1203C2.32751 12.2122 2.33768 12.3068 2.37278 12.3932C2.40787 12.4796 2.46648 12.5545 2.54196 12.6093C2.61744 12.6641 2.70677 12.6967 2.79982 12.7034C2.89287 12.71 2.98592 12.6904 3.06841 12.6469L6.61685 10.7812L10.1653 12.6469C10.2622 12.6984 10.3747 12.7156 10.4825 12.6969C10.7544 12.65 10.9372 12.3922 10.8903 12.1203L10.2122 8.16874L13.0825 5.3703C13.1606 5.29374 13.2122 5.19374 13.2278 5.08436C13.27 4.81092 13.0793 4.5578 12.8059 4.51717Z" fill="#FFB800"/>
</svg>
